<?xml version="1.0" encoding="iso-8859-1"?>
<!-- Generator: Adobe Illustrator 16.0.0, SVG Export Plug-In . SVG Version: 6.00 Build 0)  -->
<!DOCTYPE svg PUBLIC "-//W3C//DTD SVG 1.1//EN" "http://www.w3.org/Graphics/SVG/1.1/DTD/svg11.dtd">
<svg version="1.1" id="Capa_1" xmlns="http://www.w3.org/2000/svg" xmlns:xlink="http://www.w3.org/1999/xlink" x="0px" y="0px"
	 width="481.187px" height="481.187px" viewBox="0 0 481.187 481.187" style="enable-background:new 0 0 481.187 481.187;"
	 xml:space="preserve">
<g>
	<path d="M160.426,416.879l15.891,37.077h122.348l18.154-37.077l1.526-9.085l-6.636-170.258V27.237h-143.75l0.004,210.135
		l-8.853,170.422L160.426,416.879z M176.688,244.379h0.354V36.309h125.591v205.793l6.633,165.691H168.204L176.688,244.379z
		 M245.887,130.887h-10.593V60.134h10.593V130.887z M239.08,341.225c-12.512,0-22.698,10.17-22.698,22.696
		c0,12.509,10.182,22.697,22.698,22.697c12.52,0,22.702-10.188,22.702-22.697C261.782,351.395,251.592,341.225,239.08,341.225z
		 M239.08,377.528c-7.506,0-13.623-6.106-13.623-13.619c0-7.508,6.116-13.625,13.623-13.625c7.508,0,13.622,6.117,13.622,13.625
		C252.702,371.422,246.588,377.528,239.08,377.528z M127.104,0v481.187h226.978V0H127.104z M345.001,472.106H136.183V9.072H345.01
		v463.034H345.001z"/>
</g>
<g>
</g>
<g>
</g>
<g>
</g>
<g>
</g>
<g>
</g>
<g>
</g>
<g>
</g>
<g>
</g>
<g>
</g>
<g>
</g>
<g>
</g>
<g>
</g>
<g>
</g>
<g>
</g>
<g>
</g>
</svg>
